<svg width="33" height="30" viewBox="0 0 33 30" fill="none" xmlns="http://www.w3.org/2000/svg">
<path fill-rule="evenodd" clip-rule="evenodd" d="M22.1031 4.92048C17.5711 0.197567 10.0572 0.0424835 5.33424 4.57476C0.611326 9.1068 0.456476 16.6208 4.98852 21.3437L8.56877 25.0746C13.1008 29.7975 20.6148 29.9526 25.3377 25.4205C30.0606 20.8882 30.2157 13.3745 25.6834 8.65137L22.1031 4.92048V4.92048Z" fill="#FEEF7C"/>
<path fill-rule="evenodd" clip-rule="evenodd" d="M22.7555 5.57261C18.2232 0.849697 10.7095 0.694614 5.98637 5.22689C1.26346 9.75893 1.10861 17.2729 5.64065 21.9958L9.2209 25.7267C13.7529 30.4496 21.2669 30.6047 25.9898 26.0726C30.7127 21.5406 30.8678 14.0266 26.3355 9.30374L22.7555 5.57261V5.57261Z" fill="#5CD3CB"/>
<path d="M3.79013 15.3572C3.79013 21.9194 9.11069 27.2399 15.6728 27.2399C22.2362 27.2399 27.5565 21.9194 27.5565 15.3572C27.5565 8.79389 22.2362 3.47333 15.6728 3.47333C9.11069 3.47333 3.79013 8.79389 3.79013 15.3572V15.3572ZM12.061 17.5064C12.1859 17.1111 12.047 16.6802 11.7148 16.432C10.8353 15.7752 9.10133 14.4803 7.93622 13.6101C7.76803 13.4845 7.69926 13.2653 7.76546 13.0661C7.83166 12.8668 8.01785 12.7325 8.22791 12.7325H12.7438C13.1641 12.7325 13.537 12.463 13.6692 12.0642C14.0252 10.9889 14.7328 8.8519 15.202 7.43533C15.2679 7.23627 15.4539 7.10153 15.6637 7.1013C15.8735 7.10107 16.0602 7.2351 16.1266 7.43392C16.6008 8.85166 17.3168 10.9922 17.6763 12.067C17.8094 12.4644 18.1816 12.7325 18.6007 12.7325C19.669 12.7325 21.727 12.7325 23.1281 12.7325C23.3374 12.7325 23.5236 12.8663 23.5901 13.0651C23.6565 13.2639 23.5887 13.4829 23.4212 13.609C22.2596 14.484 20.5246 15.7907 19.647 16.4517C19.3167 16.7003 19.1794 17.1305 19.3041 17.5244C19.6435 18.5962 20.3242 20.7456 20.7841 22.1975C20.8481 22.4003 20.7733 22.6216 20.599 22.7437C20.4248 22.8658 20.1916 22.8609 20.0227 22.7313C18.8557 21.8354 17.1507 20.5267 16.2579 19.8415C15.9068 19.5721 15.4184 19.5728 15.0682 19.8436C14.184 20.5271 12.5022 21.8277 11.345 22.7224C11.1766 22.8527 10.9429 22.8585 10.7682 22.7364C10.5935 22.6146 10.5181 22.3933 10.5822 22.1902C11.0421 20.7341 11.7218 18.581 12.061 17.5064V17.5064Z" fill="black"/>
</svg>
